<svg width="167" height="36" viewBox="0 0 167 36" fill="none" xmlns="http://www.w3.org/2000/svg">
<path d="M9.9 35.05L0.3 -2.38419e-06H4.8L12.35 30.05L20.95 -2.38419e-06H25.6L33.95 30.05L41.6 -2.38419e-06H46.1L36.3 35H31.5L23.15 6.1L14.6 35L9.9 35.05ZM59.5508 35.6C57.2174 35.6 55.1174 35.0667 53.2508 34C51.3841 32.9333 49.9008 31.4333 48.8008 29.5C47.7341 27.5333 47.2008 25.2333 47.2008 22.6C47.2008 19.9667 47.7508 17.6833 48.8508 15.75C49.9508 13.7833 51.4341 12.2667 53.3008 11.2C55.2008 10.1333 57.3174 9.6 59.6508 9.6C61.9841 9.6 64.0841 10.1333 65.9508 11.2C67.8174 12.2667 69.2841 13.7833 70.3508 15.75C71.4508 17.6833 72.0008 19.9667 72.0008 22.6C72.0008 25.2333 71.4508 27.5333 70.3508 29.5C69.2508 31.4333 67.7508 32.9333 65.8508 34C63.9841 35.0667 61.8841 35.6 59.5508 35.6ZM59.5508 32C60.9841 32 62.3174 31.65 63.5508 30.95C64.7841 30.25 65.7841 29.2 66.5508 27.8C67.3174 26.4 67.7008 24.6667 67.7008 22.6C67.7008 20.5333 67.3174 18.8 66.5508 17.4C65.8174 16 64.8341 14.95 63.6008 14.25C62.3674 13.55 61.0508 13.2 59.6508 13.2C58.2174 13.2 56.8841 13.55 55.6508 14.25C54.4174 14.95 53.4174 16 52.6508 17.4C51.8841 18.8 51.5008 20.5333 51.5008 22.6C51.5008 24.6667 51.8841 26.4 52.6508 27.8C53.4174 29.2 54.4008 30.25 55.6008 30.95C56.8341 31.65 58.1508 32 59.5508 32ZM77.8406 35V10.2H81.6406L81.9406 13.8C82.7406 12.4667 83.8073 11.4333 85.1406 10.7C86.474 9.96667 87.974 9.6 89.6406 9.6C91.6073 9.6 93.2906 10 94.6906 10.8C96.124 11.6 97.224 12.8167 97.9906 14.45C98.8573 12.95 100.041 11.7667 101.541 10.9C103.074 10.0333 104.724 9.6 106.491 9.6C109.457 9.6 111.824 10.5 113.591 12.3C115.357 14.0667 116.241 16.8 116.241 20.5V35H112.091V20.95C112.091 18.3833 111.574 16.45 110.541 15.15C109.507 13.85 108.024 13.2 106.091 13.2C104.091 13.2 102.424 13.9833 101.091 15.55C99.7906 17.0833 99.1406 19.2833 99.1406 22.15V35H94.9406V20.95C94.9406 18.3833 94.424 16.45 93.3906 15.15C92.3573 13.85 90.874 13.2 88.9406 13.2C86.974 13.2 85.324 13.9833 83.9906 15.55C82.6906 17.0833 82.0406 19.2833 82.0406 22.15V35H77.8406ZM123.317 23.65C125.184 23.0167 126.867 22.4 128.367 21.8C129.901 21.1667 131.117 20.5 132.017 19.8C133.217 18.8333 134.167 17.6667 134.867 16.3C135.567 14.9333 135.917 13.4333 135.917 11.8C135.917 10.8333 135.851 10.2167 135.717 9.95C135.584 9.68333 135.384 9.55 135.117 9.55C134.284 9.55 133.384 9.91667 132.417 10.65C131.451 11.3833 130.501 12.4 129.567 13.7C128.634 14.9667 127.767 16.4167 126.967 18.05C126.201 19.6833 125.584 21.4333 125.117 23.3C124.651 25.1333 124.417 26.9667 124.417 28.8C124.417 30.5 124.734 31.7333 125.367 32.5C126.001 33.2333 126.834 33.6 127.867 33.6C129.067 33.6 130.334 33.2333 131.667 32.5C133.001 31.7667 134.301 30.4667 135.567 28.6L136.367 29C135.734 30.1 134.901 31.1667 133.867 32.2C132.834 33.2333 131.667 34.0833 130.367 34.75C129.101 35.3833 127.751 35.7 126.317 35.7C124.984 35.7 123.817 35.4333 122.817 34.9C121.817 34.3667 121.051 33.5833 120.517 32.55C119.984 31.4833 119.717 30.1833 119.717 28.65C119.717 27.2167 119.984 25.6167 120.517 23.85C121.051 22.05 121.801 20.2667 122.767 18.5C123.767 16.7 124.951 15.05 126.317 13.55C127.684 12.05 129.201 10.85 130.867 9.95C132.534 9.05 134.317 8.6 136.217 8.6C137.251 8.6 138.117 8.88333 138.817 9.45C139.551 9.98333 139.917 10.8 139.917 11.9C139.917 13.2333 139.517 14.4833 138.717 15.65C137.951 16.7833 136.917 17.8333 135.617 18.8C134.351 19.7333 132.967 20.5667 131.467 21.3C129.967 22.0333 128.501 22.6667 127.067 23.2C125.634 23.7333 124.367 24.1667 123.267 24.5L123.317 23.65ZM144.003 35V10.2H147.803L148.053 14.65C148.853 13.0833 150.003 11.85 151.503 10.95C153.003 10.05 154.703 9.6 156.603 9.6C159.536 9.6 161.869 10.5 163.603 12.3C165.369 14.0667 166.253 16.8 166.253 20.5V35H162.053V20.95C162.053 15.7833 159.919 13.2 155.653 13.2C153.519 13.2 151.736 13.9833 150.303 15.55C148.903 17.0833 148.203 19.2833 148.203 22.15V35H144.003Z" fill="#333333"/>
</svg>
