<svg width="247" height="267" viewBox="0 0 247 267" fill="none" xmlns="http://www.w3.org/2000/svg">
<path fill-rule="evenodd" clip-rule="evenodd" d="M107.414 0.377536C107.414 0.169029 107.583 0 107.791 0L138.387 0C138.595 0 138.764 0.169025 138.764 0.377532V105.435C138.764 105.726 139.079 105.907 139.331 105.762L230.314 53.2332C230.494 53.1289 230.725 53.1908 230.829 53.3714L246.127 79.8679C246.231 80.0485 246.169 80.2794 245.989 80.3836L155.006 132.913C154.754 133.058 154.754 133.421 155.006 133.567L245.989 186.096C246.169 186.2 246.231 186.431 246.127 186.611L230.829 213.108C230.725 213.288 230.494 213.35 230.313 213.246L139.331 160.717C139.079 160.572 138.764 160.754 138.764 161.044L138.764 266.102C138.764 266.311 138.595 266.48 138.387 266.48H107.791C107.583 266.48 107.414 266.311 107.414 266.102V161.044C107.414 160.753 107.099 160.572 106.848 160.717L15.8644 213.246C15.6838 213.35 15.4529 213.288 15.3486 213.108L0.0508728 186.611C-0.053381 186.431 0.00848566 186.2 0.189058 186.096L91.172 133.567C91.4236 133.421 91.4236 133.058 91.172 132.913L0.18883 80.3836C0.0082573 80.2793 -0.0536101 80.0484 0.0506437 79.8679L15.3484 53.3714C15.4527 53.1908 15.6836 53.1289 15.8641 53.2332L106.848 105.763C107.099 105.908 107.414 105.726 107.414 105.436V0.377536Z" fill="white" fill-opacity="0.15"/>
</svg>
